<svg version="1.1" xmlns="http://www.w3.org/2000/svg" viewBox="0 0 1359.7560501098633 833" width="1359.7560501098633" height="833">
  <!-- svg-source:excalidraw -->
  
  <defs>
    <style class="style-fonts">
      @font-face {
        font-family: "Virgil";
        src: url("https://excalidraw.com/Virgil.woff2");
      }
      @font-face {
        font-family: "Cascadia";
        src: url("https://excalidraw.com/Cascadia.woff2");
      }
      @font-face {
        font-family: "Assistant";
        src: url("https://excalidraw.com/Assistant-Regular.woff2");
      }
    </style>
    
  </defs>
  <g stroke-linecap="round" transform="translate(321 236) rotate(0 48.5 48.5)"><path d="M24.25 0 C44.29 0.18, 64.04 -0.53, 72.75 0 M24.25 0 C40.48 -0.22, 55.66 0.24, 72.75 0 M72.75 0 C88.45 -0.21, 96.06 8.12, 97 24.25 M72.75 0 C87.25 1.63, 97.44 9.26, 97 24.25 M97 24.25 C97.96 40.5, 97.35 58.25, 97 72.75 M97 24.25 C96.11 34.55, 97.6 46.96, 97 72.75 M97 72.75 C95.26 87.84, 87.56 96.36, 72.75 97 M97 72.75 C98.91 89.61, 86.74 98.55, 72.75 97 M72.75 97 C55.41 96.91, 41.25 96.8, 24.25 97 M72.75 97 C57.42 98.44, 43.39 97.31, 24.25 97 M24.25 97 C9.94 95.03, 1.83 88.24, 0 72.75 M24.25 97 C9.63 96.48, 0.88 89.84, 0 72.75 M0 72.75 C0.46 59.52, 0.46 42.79, 0 24.25 M0 72.75 C0.28 60.53, 0.75 48.86, 0 24.25 M0 24.25 C-1.82 10.02, 8.24 1.31, 24.25 0 M0 24.25 C-0.18 5.94, 6.21 1.97, 24.25 0" stroke="#1971c2" stroke-width="2" fill="none"></path></g><g stroke-linecap="round" transform="translate(325.5 349.5) rotate(0 48.5 48.5)"><path d="M24.25 0 C38.77 0.54, 57.06 -0.94, 72.75 0 M24.25 0 C35.69 -0.26, 46.27 -0.54, 72.75 0 M72.75 0 C88.66 -1.7, 98.67 8.92, 97 24.25 M72.75 0 C89.72 -2.11, 95.05 8.27, 97 24.25 M97 24.25 C98.25 37.91, 97.89 54.27, 97 72.75 M97 24.25 C96.33 40.87, 97.55 57.14, 97 72.75 M97 72.75 C97.47 87, 88.64 96.73, 72.75 97 M97 72.75 C94.93 90.86, 88.57 97.57, 72.75 97 M72.75 97 C55.45 97.89, 33.73 97.53, 24.25 97 M72.75 97 C55.58 95.93, 36.96 96.15, 24.25 97 M24.25 97 C8.23 95.61, 1.86 89.64, 0 72.75 M24.25 97 C6.31 97.95, -0.88 91.08, 0 72.75 M0 72.75 C-0.75 59.14, 2.15 47.31, 0 24.25 M0 72.75 C-1.15 61.67, 0.33 51.97, 0 24.25 M0 24.25 C1.17 7.26, 8.67 0.26, 24.25 0 M0 24.25 C1.29 9.29, 6.69 0.92, 24.25 0" stroke="#1971c2" stroke-width="2" fill="none"></path></g><g stroke-linecap="round" transform="translate(438.5 234.5) rotate(0 48.5 48.5)"><path d="M24.25 0 C39.91 1.45, 56.59 -1.81, 72.75 0 M24.25 0 C42.29 -0.31, 60.2 -0.65, 72.75 0 M72.75 0 C89.3 0.23, 96.13 6.68, 97 24.25 M72.75 0 C89.44 1.27, 96.15 9.15, 97 24.25 M97 24.25 C98.71 37.89, 96.04 54.89, 97 72.75 M97 24.25 C97.65 34.45, 97.17 44.94, 97 72.75 M97 72.75 C95.61 89.08, 90.69 96.13, 72.75 97 M97 72.75 C98.58 88.74, 88.89 95.14, 72.75 97 M72.75 97 C56.31 96.53, 39.21 95.68, 24.25 97 M72.75 97 C59.47 97.15, 45.5 96.87, 24.25 97 M24.25 97 C7.89 96.44, -0.48 88.31, 0 72.75 M24.25 97 C8.88 97.49, 1.51 87.38, 0 72.75 M0 72.75 C0.85 51.66, 1.32 32.66, 0 24.25 M0 72.75 C-0.07 59.55, -0.61 47.33, 0 24.25 M0 24.25 C-1.13 8.56, 9.49 -0.04, 24.25 0 M0 24.25 C1.7 8.79, 6.19 2.12, 24.25 0" stroke="#1971c2" stroke-width="2" fill="none"></path></g><g stroke-linecap="round" transform="translate(441.5 345.5) rotate(0 48.5 48.5)"><path d="M24.25 0 C39.36 -0.41, 51.92 1.07, 72.75 0 M24.25 0 C33.37 0.13, 43.05 -1.03, 72.75 0 M72.75 0 C90.08 -0.52, 98.33 8.91, 97 24.25 M72.75 0 C90.56 2.27, 94.96 9.05, 97 24.25 M97 24.25 C97.23 37.55, 97.13 51.07, 97 72.75 M97 24.25 C97.22 36.6, 95.59 49.94, 97 72.75 M97 72.75 C97.75 89.46, 87.15 97.07, 72.75 97 M97 72.75 C95.41 88.75, 91.14 95.33, 72.75 97 M72.75 97 C62.18 95.53, 50.41 97.08, 24.25 97 M72.75 97 C61.6 97.26, 51.85 96.16, 24.25 97 M24.25 97 C8.48 98.95, -0.8 89.67, 0 72.75 M24.25 97 C10.07 98.27, 0.5 89.1, 0 72.75 M0 72.75 C-0.17 57.25, -1.07 42.55, 0 24.25 M0 72.75 C-0.67 57.43, 0.15 42.67, 0 24.25 M0 24.25 C1.24 7.91, 8.99 1.69, 24.25 0 M0 24.25 C-2.3 9.4, 8.81 1.92, 24.25 0" stroke="#1971c2" stroke-width="2" fill="none"></path></g><g stroke-linecap="round" transform="translate(557.25 236.5) rotate(0 48.5 48.5)"><path d="M24.25 0 C38.14 0.83, 49.97 -2.12, 72.75 0 M24.25 0 C36.92 0.18, 48.68 -0.25, 72.75 0 M72.75 0 C88.35 -1.64, 95.34 8.53, 97 24.25 M72.75 0 C89.71 -1.01, 95.45 8.7, 97 24.25 M97 24.25 C96.21 44.18, 98.3 63.01, 97 72.75 M97 24.25 C97.24 38.3, 96.52 50.63, 97 72.75 M97 72.75 C95.87 87.7, 87.75 95.93, 72.75 97 M97 72.75 C95.3 88.46, 89.23 96.23, 72.75 97 M72.75 97 C61.31 94.8, 46.52 96.96, 24.25 97 M72.75 97 C55.53 97.34, 38.02 97.82, 24.25 97 M24.25 97 C6.14 95.14, -0.65 89.76, 0 72.75 M24.25 97 C7.29 94.96, -2.07 87.06, 0 72.75 M0 72.75 C-0.33 64.1, -0.29 50.66, 0 24.25 M0 72.75 C-0.55 59.86, 0.94 45.94, 0 24.25 M0 24.25 C1.92 7.64, 9.55 0.97, 24.25 0 M0 24.25 C1.36 8.63, 9.33 -1.19, 24.25 0" stroke="#1971c2" stroke-width="2" fill="none"></path></g><g stroke-linecap="round" transform="translate(674.75 235) rotate(0 48.5 48.5)"><path d="M24.25 0 C40.86 -0.94, 61.47 1.63, 72.75 0 M24.25 0 C41.66 -0.93, 58.82 0.12, 72.75 0 M72.75 0 C89.61 -0.88, 95.65 8.62, 97 24.25 M72.75 0 C90.74 1.43, 95.08 6.83, 97 24.25 M97 24.25 C96.69 43.4, 96.6 60.91, 97 72.75 M97 24.25 C96.1 42.26, 96.08 60.95, 97 72.75 M97 72.75 C95.52 88.52, 89.18 96.33, 72.75 97 M97 72.75 C95.85 87.35, 87.3 97.8, 72.75 97 M72.75 97 C63.96 98.67, 54.3 97.8, 24.25 97 M72.75 97 C57.5 96.28, 43.88 97.63, 24.25 97 M24.25 97 C7.39 95.23, -1.8 87.31, 0 72.75 M24.25 97 C6.2 98.14, -1.75 88.81, 0 72.75 M0 72.75 C-0.48 53.09, -0.72 33, 0 24.25 M0 72.75 C0.56 55.75, 0.33 39.68, 0 24.25 M0 24.25 C1.18 8.56, 9.17 -1.04, 24.25 0 M0 24.25 C-1.47 8.54, 9.73 0.65, 24.25 0" stroke="#1971c2" stroke-width="2" fill="none"></path></g><g stroke-linecap="round" transform="translate(677.75 346) rotate(0 48.5 48.5)"><path d="M24.25 0 C36.67 1.55, 46.53 0.98, 72.75 0 M24.25 0 C39.02 0.62, 55.79 -0.04, 72.75 0 M72.75 0 C87.57 0.53, 98.58 9.32, 97 24.25 M72.75 0 C87 -1.25, 98.78 9.23, 97 24.25 M97 24.25 C96.22 43.69, 98.54 61.62, 97 72.75 M97 24.25 C96.14 38.05, 95.99 52.72, 97 72.75 M97 72.75 C97.27 88.25, 87.92 95.64, 72.75 97 M97 72.75 C95.38 89.72, 86.78 94.75, 72.75 97 M72.75 97 C59.1 98.11, 42.08 98.27, 24.25 97 M72.75 97 C55.81 96.97, 39.16 95.66, 24.25 97 M24.25 97 C6.29 95.39, -1.64 89.91, 0 72.75 M24.25 97 C6.33 96.9, 2.21 88.86, 0 72.75 M0 72.75 C-0.61 59.16, 1.04 49.85, 0 24.25 M0 72.75 C0.27 59.21, 0.12 44.94, 0 24.25 M0 24.25 C1.09 7.05, 6.81 0.4, 24.25 0 M0 24.25 C1.65 8.73, 8.85 1.95, 24.25 0" stroke="#1971c2" stroke-width="2" fill="none"></path></g><g stroke-linecap="round" transform="translate(329.125 463.25) rotate(0 48.5 48.5)"><path d="M24.25 0 C42.42 -2.08, 61.27 1.35, 72.75 0 M24.25 0 C37.92 0.11, 51.55 1.14, 72.75 0 M72.75 0 C89.8 -0.06, 96.42 6.55, 97 24.25 M72.75 0 C87.08 0.44, 97.93 9.18, 97 24.25 M97 24.25 C98 42.41, 94.83 60.25, 97 72.75 M97 24.25 C96.83 36.9, 97.58 48.1, 97 72.75 M97 72.75 C96.21 87.5, 87.77 95.92, 72.75 97 M97 72.75 C96.72 86.67, 87.3 98.2, 72.75 97 M72.75 97 C54.1 98.23, 35.79 96.28, 24.25 97 M72.75 97 C63.42 97.07, 53.39 96.89, 24.25 97 M24.25 97 C10.07 97.69, -1.38 87.33, 0 72.75 M24.25 97 C9.39 95.08, 1.99 87.26, 0 72.75 M0 72.75 C0.03 55.84, 1.74 36.37, 0 24.25 M0 72.75 C0.18 58.67, -0.79 44.28, 0 24.25 M0 24.25 C0.93 8.9, 6.2 1.07, 24.25 0 M0 24.25 C-0.5 8.12, 9.01 -2.29, 24.25 0" stroke="#1971c2" stroke-width="2" fill="none"></path></g><g stroke-linecap="round" transform="translate(333.625 576.75) rotate(0 48.5 48.5)"><path d="M24.25 0 C41.69 2.05, 57.91 2.12, 72.75 0 M24.25 0 C36.01 0.91, 46.84 0.08, 72.75 0 M72.75 0 C88.34 -1.53, 95.41 8.47, 97 24.25 M72.75 0 C89.85 1.1, 98.68 5.98, 97 24.25 M97 24.25 C95.62 37.1, 96.31 50.39, 97 72.75 M97 24.25 C97.48 36.87, 96.52 49.25, 97 72.75 M97 72.75 C95.86 87.84, 88.68 95.05, 72.75 97 M97 72.75 C95.39 90.12, 90.46 98.49, 72.75 97 M72.75 97 C53 96.1, 34.11 95.24, 24.25 97 M72.75 97 C61.18 97.26, 49.13 97.49, 24.25 97 M24.25 97 C6.7 95.41, 1.14 87.25, 0 72.75 M24.25 97 C10.07 95.34, 1.53 90.11, 0 72.75 M0 72.75 C1.93 52.7, -0.23 34.17, 0 24.25 M0 72.75 C-0.89 62.78, 0.39 53.53, 0 24.25 M0 24.25 C-1.89 9.15, 7.65 0.03, 24.25 0 M0 24.25 C0.93 5.79, 7.56 0.81, 24.25 0" stroke="#1971c2" stroke-width="2" fill="none"></path></g><g stroke-linecap="round" transform="translate(446.625 461.75) rotate(0 48.5 48.5)"><path d="M24.25 0 C33.86 1.29, 43.06 0.33, 72.75 0 M24.25 0 C38.09 -0.41, 50.75 -1.15, 72.75 0 M72.75 0 C87.32 0.38, 97.81 9.04, 97 24.25 M72.75 0 C90.6 -2.1, 96.29 9.74, 97 24.25 M97 24.25 C95.55 39, 95.88 53.27, 97 72.75 M97 24.25 C96.88 41.06, 96.7 58.76, 97 72.75 M97 72.75 C96.76 86.97, 87.51 98.05, 72.75 97 M97 72.75 C98.54 90.4, 90.74 96.02, 72.75 97 M72.75 97 C54.29 94.76, 38.61 98.17, 24.25 97 M72.75 97 C57.78 97.4, 40.13 96.26, 24.25 97 M24.25 97 C9.22 95.33, 1.73 87.47, 0 72.75 M24.25 97 C9.62 98.19, 2.22 89.24, 0 72.75 M0 72.75 C-0.65 55.97, -2.44 39.72, 0 24.25 M0 72.75 C0.86 58.22, -0.55 43.42, 0 24.25 M0 24.25 C-0.44 8.12, 8.89 -1.99, 24.25 0 M0 24.25 C-0.52 8.9, 10.34 2.26, 24.25 0" stroke="#1971c2" stroke-width="2" fill="none"></path></g><g stroke-linecap="round" transform="translate(449.625 572.75) rotate(0 48.5 48.5)"><path d="M24.25 0 C41.25 0.32, 60.65 0.97, 72.75 0 M24.25 0 C42.34 -0.75, 60.22 0.21, 72.75 0 M72.75 0 C89.73 0.96, 98.46 6.26, 97 24.25 M72.75 0 C88.2 1.66, 97.07 6.1, 97 24.25 M97 24.25 C96.05 37.97, 97.98 53.57, 97 72.75 M97 24.25 C96.24 37.15, 96.69 50.14, 97 72.75 M97 72.75 C95.6 89.96, 90.26 98.29, 72.75 97 M97 72.75 C98.82 87.94, 89.89 95.44, 72.75 97 M72.75 97 C59.96 97.96, 49.6 98, 24.25 97 M72.75 97 C56.94 96.37, 43.09 96.33, 24.25 97 M24.25 97 C9.81 95.56, 1.33 89.96, 0 72.75 M24.25 97 C10.3 97.32, 1 91.21, 0 72.75 M0 72.75 C-1.91 60.47, 0.2 45.96, 0 24.25 M0 72.75 C-1.17 59.5, -0.44 45.19, 0 24.25 M0 24.25 C0.81 6.09, 7.63 0.71, 24.25 0 M0 24.25 C2.25 10.34, 6.99 0.44, 24.25 0" stroke="#1971c2" stroke-width="2" fill="none"></path></g><g stroke-linecap="round" transform="translate(569.375 456.75) rotate(0 48.5 48.5)"><path d="M24.25 0 C42.39 1.2, 63.05 0.71, 72.75 0 M24.25 0 C37.85 0.56, 53.45 0.85, 72.75 0 M72.75 0 C90.38 -1.83, 96.38 9.53, 97 24.25 M72.75 0 C88.98 -1.99, 96.78 6.89, 97 24.25 M97 24.25 C98.06 40.06, 96.37 52.81, 97 72.75 M97 24.25 C96.6 34.39, 96.02 47, 97 72.75 M97 72.75 C98.34 90.21, 90.5 96.15, 72.75 97 M97 72.75 C97.98 87.35, 87.64 94.86, 72.75 97 M72.75 97 C63.56 98.83, 53.43 99.34, 24.25 97 M72.75 97 C57.1 95.78, 41.17 95.89, 24.25 97 M24.25 97 C9.42 98.04, 1.93 89.19, 0 72.75 M24.25 97 C9.09 99.3, -0.94 88.73, 0 72.75 M0 72.75 C0.63 56.83, 0.16 45.12, 0 24.25 M0 72.75 C0.24 56.25, 0.86 38.72, 0 24.25 M0 24.25 C-0.46 8.79, 10.04 1.96, 24.25 0 M0 24.25 C-1.09 8.52, 9.14 -2.23, 24.25 0" stroke="#1971c2" stroke-width="2" fill="none"></path></g><g stroke-linecap="round" transform="translate(569.875 577.25) rotate(0 48.5 48.5)"><path d="M24.25 0 C42.13 0.55, 56.79 -0.91, 72.75 0 M24.25 0 C35.48 0.39, 46.64 -1.01, 72.75 0 M72.75 0 C88.29 1.44, 97.06 6.35, 97 24.25 M72.75 0 C88.7 -1.19, 97.06 7.28, 97 24.25 M97 24.25 C96.84 37.11, 95.88 50.42, 97 72.75 M97 24.25 C96.24 36.71, 97.61 48.78, 97 72.75 M97 72.75 C98.58 88.07, 89.77 95.64, 72.75 97 M97 72.75 C95.73 86.78, 86.65 95.94, 72.75 97 M72.75 97 C54.94 99.35, 37.35 95.98, 24.25 97 M72.75 97 C62.92 95.87, 52.03 97.11, 24.25 97 M24.25 97 C10.01 97.28, 0.87 90.91, 0 72.75 M24.25 97 C7.15 96.81, -0.13 86.67, 0 72.75 M0 72.75 C-0.35 58.4, 0.77 40.29, 0 24.25 M0 72.75 C0.51 54.61, -0.12 38.82, 0 24.25 M0 24.25 C1.96 10.04, 7.13 0.38, 24.25 0 M0 24.25 C1.06 5.85, 9.36 1.44, 24.25 0" stroke="#1971c2" stroke-width="2" fill="none"></path></g><g stroke-linecap="round" transform="translate(682.875 462.25) rotate(0 48.5 48.5)"><path d="M24.25 0 C42.07 -0.79, 58.48 -1.81, 72.75 0 M24.25 0 C40.46 -1.15, 54.9 0.49, 72.75 0 M72.75 0 C88.98 -1.73, 96.81 7.05, 97 24.25 M72.75 0 C88.98 -0.8, 96.58 9.49, 97 24.25 M97 24.25 C95.47 40.41, 95.81 58.62, 97 72.75 M97 24.25 C97.33 34.72, 97.45 43.46, 97 72.75 M97 72.75 C97.85 87.56, 87.81 95.14, 72.75 97 M97 72.75 C94.74 87.85, 90.57 97.67, 72.75 97 M72.75 97 C55.31 96.1, 34.89 98.62, 24.25 97 M72.75 97 C62.91 97.17, 52.71 96.79, 24.25 97 M24.25 97 C8.96 99, -0.81 88.75, 0 72.75 M24.25 97 C7.96 94.75, 0.35 89.1, 0 72.75 M0 72.75 C0.89 60.28, 1.14 51.16, 0 24.25 M0 72.75 C-0.42 58.48, 0.78 44.47, 0 24.25 M0 24.25 C-0.95 8.46, 9 -1.94, 24.25 0 M0 24.25 C1.27 9.53, 6.8 -1.06, 24.25 0" stroke="#1971c2" stroke-width="2" fill="none"></path></g><g stroke-linecap="round" transform="translate(685.875 573.25) rotate(0 48.5 48.5)"><path d="M24.25 0 C39.4 -1.45, 58.01 0.95, 72.75 0 M24.25 0 C40.81 1.16, 58.02 -0.42, 72.75 0 M72.75 0 C88.73 -1.04, 97.05 7.38, 97 24.25 M72.75 0 C88.49 1.41, 98.31 7.55, 97 24.25 M97 24.25 C95.58 36.64, 94.71 48.11, 97 72.75 M97 24.25 C98.12 40.91, 97.75 57.74, 97 72.75 M97 72.75 C95.89 87.06, 86.95 96.08, 72.75 97 M97 72.75 C98.66 89.59, 90.62 97.27, 72.75 97 M72.75 97 C51.79 97.8, 32.34 98.39, 24.25 97 M72.75 97 C62.67 97.39, 51.09 98.25, 24.25 97 M24.25 97 C7.27 96.84, -0.11 86.96, 0 72.75 M24.25 97 C8.43 97.18, -1.88 88.56, 0 72.75 M0 72.75 C0.87 55.51, -0.16 39.94, 0 24.25 M0 72.75 C1.09 64.02, -0.36 53.52, 0 24.25 M0 24.25 C0.92 6.14, 9.19 1.25, 24.25 0 M0 24.25 C-1.28 7.02, 7.61 0.21, 24.25 0" stroke="#1971c2" stroke-width="2" fill="none"></path></g><g stroke-linecap="round" transform="translate(290 200) rotate(0 264 251.5)"><path d="M32 0 C213.91 -1.68, 393.91 -2, 496 0 M32 0 C156 -0.45, 280.93 0, 496 0 M496 0 C517.32 -0.24, 526.52 9.72, 528 32 M496 0 C518.15 -0.95, 527.21 11.71, 528 32 M528 32 C527.7 192.58, 527.79 354.5, 528 471 M528 32 C527.98 124.91, 527.64 217.65, 528 471 M528 471 C527.25 492.25, 518.36 501.19, 496 503 M528 471 C529.95 493.12, 519.47 505.17, 496 503 M496 503 C315.4 502.91, 133.97 503.08, 32 503 M496 503 C385.15 502.91, 273.65 503.14, 32 503 M32 503 C9.58 502.93, -0.54 494.24, 0 471 M32 503 C12.2 500.89, -1.41 492.4, 0 471 M0 471 C1.87 314.84, 1.49 156.46, 0 32 M0 471 C-1.81 305.31, -2.24 140.42, 0 32 M0 32 C0.42 10.24, 10.73 0.47, 32 0 M0 32 C0.7 12.27, 12.67 -0.24, 32 0" stroke="#2f9e44" stroke-width="2" fill="none"></path></g><g stroke-linecap="round" transform="translate(301 112) rotate(0 251.9999999999999 36.5)"><path d="M18.25 0 C117.1 -0.61, 214.7 -0.36, 485.75 0 M18.25 0 C111.55 0.08, 204.92 0.72, 485.75 0 M485.75 0 C499.07 -1.9, 505.84 6.98, 504 18.25 M485.75 0 C497.19 1.14, 503.68 5.1, 504 18.25 M504 18.25 C502.64 28.59, 502.01 40.18, 504 54.75 M504 18.25 C503.67 25.84, 503.96 35.01, 504 54.75 M504 54.75 C505.05 68.62, 498.25 71.3, 485.75 73 M504 54.75 C505.75 64.81, 498.06 74.27, 485.75 73 M485.75 73 C383.85 74.88, 280.85 74.33, 18.25 73 M485.75 73 C331.8 71.38, 178.28 71.56, 18.25 73 M18.25 73 C6.99 71.88, 1.17 67.54, 0 54.75 M18.25 73 C6.26 71.51, -1.49 68.2, 0 54.75 M0 54.75 C-1.19 39.08, -0.24 24.18, 0 18.25 M0 54.75 C0.65 43.52, -0.77 33.76, 0 18.25 M0 18.25 C-1.48 6.28, 5.21 -0.29, 18.25 0 M0 18.25 C-1.16 4.68, 3.86 0.9, 18.25 0" stroke="#2f9e44" stroke-width="2" fill="none"></path></g><g transform="translate(509.8359832763671 126) rotate(0 43.16401672363287 22.5)"><text x="43.16401672363281" y="31.536" font-family="Virgil, Segoe UI Emoji" font-size="36px" fill="#2f9e44" text-anchor="middle" style="white-space: pre;" direction="ltr" dominant-baseline="alphabetic">Title</text></g><g stroke-linecap="round" transform="translate(841.5 425.5) rotate(0 101 36.5)"><path d="M18.25 0 C59.24 -0.62, 101.49 -0.58, 183.75 0 M18.25 0 C55.74 1.07, 91.83 0.62, 183.75 0 M183.75 0 C194.83 1.84, 202.48 4.71, 202 18.25 M183.75 0 C194.33 2.27, 201.25 4.75, 202 18.25 M202 18.25 C200.91 28, 203.86 36.42, 202 54.75 M202 18.25 C202.04 32.26, 202.71 45.72, 202 54.75 M202 54.75 C203.09 68.38, 197.11 71.06, 183.75 73 M202 54.75 C203.96 66.72, 198.02 73.1, 183.75 73 M183.75 73 C129.96 73.34, 76.12 70.88, 18.25 73 M183.75 73 C128.25 71.72, 71.25 73.12, 18.25 73 M18.25 73 C4.95 71.85, -0.92 68.81, 0 54.75 M18.25 73 C8.18 71.01, 1.55 65.53, 0 54.75 M0 54.75 C-1 44.85, -0.26 38.01, 0 18.25 M0 54.75 C-0.31 46.66, -0.7 39.2, 0 18.25 M0 18.25 C-0.12 7.01, 7 -0.84, 18.25 0 M0 18.25 C-1.27 7.76, 4.79 1.55, 18.25 0" stroke="#2f9e44" stroke-width="2" fill="none"></path></g><g transform="translate(880.0939788818359 439.5) rotate(0 62.40602111816406 22.5)"><text x="62.40602111816406" y="31.536" font-family="Virgil, Segoe UI Emoji" font-size="36px" fill="#2f9e44" text-anchor="middle" style="white-space: pre;" direction="ltr" dominant-baseline="alphabetic">TIMER</text></g><g stroke-linecap="round" transform="translate(840 287.5) rotate(0 101 36.5)"><path d="M18.25 0 C73.97 2.03, 132.61 1.61, 183.75 0 M18.25 0 C82.92 0.36, 145.59 1.9, 183.75 0 M183.75 0 C194.77 1.05, 203.33 6.51, 202 18.25 M183.75 0 C197.72 -0.88, 202.72 4.21, 202 18.25 M202 18.25 C203.36 28.4, 201.77 43.26, 202 54.75 M202 18.25 C201.71 26.89, 202.47 35.01, 202 54.75 M202 54.75 C201.31 67.55, 196.04 73.69, 183.75 73 M202 54.75 C203.95 68.9, 195.52 71.87, 183.75 73 M183.75 73 C131.24 72.51, 83.09 71.61, 18.25 73 M183.75 73 C123.93 74.8, 66.26 75.57, 18.25 73 M18.25 73 C4.94 74.5, -1.55 68.86, 0 54.75 M18.25 73 C3.86 71.02, -1.03 66.92, 0 54.75 M0 54.75 C2.06 40.36, -1.44 28.64, 0 18.25 M0 54.75 C0.74 44.8, -0.39 34.93, 0 18.25 M0 18.25 C-0.64 7.46, 4.59 0.79, 18.25 0 M0 18.25 C-1.99 6.46, 4.96 1.74, 18.25 0" stroke="#2f9e44" stroke-width="2" fill="none"></path></g><g transform="translate(890.6359786987305 301.5) rotate(0 50.36402130126953 22.5)"><text x="50.36402130126953" y="31.536" font-family="Virgil, Segoe UI Emoji" font-size="36px" fill="#2f9e44" text-anchor="middle" style="white-space: pre;" direction="ltr" dominant-baseline="alphabetic">Count</text></g><g stroke-linecap="round" transform="translate(843 554.5) rotate(0 101 36.5)"><path d="M18.25 0 C57.58 0.23, 98.17 -0.72, 183.75 0 M18.25 0 C71.24 0.73, 126.32 2, 183.75 0 M183.75 0 C195.37 1.24, 200.29 4.62, 202 18.25 M183.75 0 C197.81 -0.06, 201.97 6.22, 202 18.25 M202 18.25 C202.43 27.91, 200.97 40.4, 202 54.75 M202 18.25 C202 29.15, 202.55 41.17, 202 54.75 M202 54.75 C201.3 68.68, 197.18 74.63, 183.75 73 M202 54.75 C202.81 67.45, 196.55 72.98, 183.75 73 M183.75 73 C122.47 71.15, 62.08 71.51, 18.25 73 M183.75 73 C139.59 74.12, 97.29 73.42, 18.25 73 M18.25 73 C6.56 71.63, -1.51 66.36, 0 54.75 M18.25 73 C7.27 72.83, 1.47 66.73, 0 54.75 M0 54.75 C1.39 40.08, 1.5 25.97, 0 18.25 M0 54.75 C0.49 39.79, 0.45 26.41, 0 18.25 M0 18.25 C-1.93 7.72, 7.59 -1.37, 18.25 0 M0 18.25 C0.59 4.57, 4.2 1.43, 18.25 0" stroke="#1971c2" stroke-width="2" fill="none"></path></g><g transform="translate(899.3779907226562 568.5) rotate(0 44.62200927734375 22.5)"><text x="44.62200927734375" y="31.536" font-family="Virgil, Segoe UI Emoji" font-size="36px" fill="#1971c2" text-anchor="middle" style="white-space: pre;" direction="ltr" dominant-baseline="alphabetic">Level</text></g><g stroke-linecap="round" transform="translate(285 725.5) rotate(0 136.99999999999994 36.5)"><path d="M18.25 0 C110.29 3.52, 203.44 0.28, 255.75 0 M18.25 0 C86.66 1.68, 155.68 0.52, 255.75 0 M255.75 0 C266.23 -1.47, 272.92 7.28, 274 18.25 M255.75 0 C269.27 -0.87, 276.24 6.74, 274 18.25 M274 18.25 C272.78 33.5, 274.83 46.02, 274 54.75 M274 18.25 C273.77 26.4, 274.63 35.54, 274 54.75 M274 54.75 C272.34 65.72, 268.88 73.8, 255.75 73 M274 54.75 C275.63 64.77, 269.57 72.75, 255.75 73 M255.75 73 C204.89 73.04, 154.81 72.67, 18.25 73 M255.75 73 C187.29 73.02, 119.56 74.14, 18.25 73 M18.25 73 C6.35 74.8, -0.52 66.14, 0 54.75 M18.25 73 C6.56 74, -1.29 65.34, 0 54.75 M0 54.75 C0.74 43.63, -1.71 33.05, 0 18.25 M0 54.75 C0.77 42.25, -0.2 28.87, 0 18.25 M0 18.25 C0.57 5.55, 5.2 0.47, 18.25 0 M0 18.25 C-2.26 7.78, 4.24 1.23, 18.25 0" stroke="#1971c2" stroke-width="2" fill="none"></path></g><g transform="translate(333.6919708251953 739.5) rotate(0 88.30802917480469 22.5)"><text x="88.30802917480469" y="31.536" font-family="Virgil, Segoe UI Emoji" font-size="36px" fill="#1971c2" text-anchor="middle" style="white-space: pre;" direction="ltr" dominant-baseline="alphabetic">Randomize</text></g><g stroke-linecap="round" transform="translate(571.9999999999998 724.5) rotate(0 122.00000000000011 36.5)"><path d="M18.25 0 C60.99 1.39, 100.34 0.6, 225.75 0 M18.25 0 C86.5 1.61, 155.26 1.85, 225.75 0 M225.75 0 C239.41 0.62, 242.88 7.81, 244 18.25 M225.75 0 C238.4 1.82, 244.46 7.29, 244 18.25 M244 18.25 C245.15 27.05, 243.22 34.79, 244 54.75 M244 18.25 C244.51 27.12, 243.89 34.07, 244 54.75 M244 54.75 C242.77 67.46, 237.52 72.38, 225.75 73 M244 54.75 C243.41 68.82, 235.82 75.02, 225.75 73 M225.75 73 C177.35 72.69, 132.36 75.36, 18.25 73 M225.75 73 C159.27 70.65, 92.47 71.11, 18.25 73 M18.25 73 C6.82 71.3, -1.42 68.04, 0 54.75 M18.25 73 C4.11 72.81, 0.27 64.78, 0 54.75 M0 54.75 C-0.39 43.1, -1.69 32.67, 0 18.25 M0 54.75 C-0.19 47.37, -0.03 38.28, 0 18.25 M0 18.25 C1.1 4.39, 7.84 0.37, 18.25 0 M0 18.25 C0.03 4.32, 3.94 -0.64, 18.25 0" stroke="#1971c2" stroke-width="2" fill="none"></path></g><g transform="translate(636.0399780273435 738.5) rotate(0 57.96002197265625 22.5)"><text x="57.96002197265625" y="31.536" font-family="Virgil, Segoe UI Emoji" font-size="36px" fill="#1971c2" text-anchor="middle" style="white-space: pre;" direction="ltr" dominant-baseline="alphabetic">Import</text></g><g stroke-linecap="round" transform="translate(24.999999999999773 207.5) rotate(0 122.00000000000006 240)"><path d="M32 0 C93.24 1.54, 154.57 2.5, 212 0 M32 0 C73.43 -0.23, 113.65 0.08, 212 0 M212 0 C233.58 0.42, 245.49 11.97, 244 32 M212 0 C231.79 1.46, 244.52 10.1, 244 32 M244 32 C245.05 151.09, 243.86 269.85, 244 448 M244 32 C246.28 191.65, 245.67 350.87, 244 448 M244 448 C243.83 468.71, 233.01 481.21, 212 480 M244 448 C242.25 468.1, 235.54 481.99, 212 480 M212 480 C147.07 480.18, 80.46 480.48, 32 480 M212 480 C149.9 480.05, 85.45 479.95, 32 480 M32 480 C10.67 480.06, -1.93 471.12, 0 448 M32 480 C11.28 481.69, 1.39 467.17, 0 448 M0 448 C0.13 340.59, 0.21 234.98, 0 32 M0 448 C-2.25 311.45, -2.07 175.28, 0 32 M0 32 C-1.48 11.78, 8.79 -0.79, 32 0 M0 32 C-1.1 8.94, 11.14 1.9, 32 0" stroke="#2f9e44" stroke-width="2" fill="none"></path></g><g transform="translate(37.43395996093733 425) rotate(0 109.56604003906247 22.5)"><text x="109.5660400390625" y="31.536" font-family="Virgil, Segoe UI Emoji" font-size="36px" fill="#2f9e44" text-anchor="middle" style="white-space: pre;" direction="ltr" dominant-baseline="alphabetic">Leaderboard</text></g><g stroke-linecap="round" transform="translate(10 10) rotate(0 529 406.5)"><path d="M32 0 C374.6 4.17, 717.47 3.4, 1026 0 M32 0 C287.02 2.47, 542.35 2.64, 1026 0 M1026 0 C1045.97 1.67, 1059.53 9.14, 1058 32 M1026 0 C1049.25 1.73, 1057.05 12.47, 1058 32 M1058 32 C1055.9 285.19, 1056.37 537.56, 1058 781 M1058 32 C1059.15 273.22, 1058.99 514.43, 1058 781 M1058 781 C1056.2 804.13, 1048.03 814.41, 1026 813 M1058 781 C1059.38 803.1, 1049.19 813.68, 1026 813 M1026 813 C630.64 814.62, 236.38 814.42, 32 813 M1026 813 C751.57 810.29, 477.12 810.97, 32 813 M32 813 C8.98 814.09, 1.69 803.92, 0 781 M32 813 C12.02 813.55, 1.88 800.93, 0 781 M0 781 C0.86 571.37, 1.11 363.35, 0 32 M0 781 C0.86 501.79, 0.43 223.25, 0 32 M0 32 C-1.46 12.66, 8.76 1.65, 32 0 M0 32 C0.31 12.61, 10.73 -1.19, 32 0" stroke="#e03131" stroke-width="2" fill="none"></path></g><g stroke-linecap="round" transform="translate(29 25.5) rotate(0 510.4999999999998 36.5)"><path d="M18.25 0 C392.11 -0.68, 766.64 -1.3, 1002.75 0 M18.25 0 C331.27 -1.94, 644.57 -1.97, 1002.75 0 M1002.75 0 C1016 -0.4, 1020.64 4.58, 1021 18.25 M1002.75 0 C1016.47 -0.45, 1022.2 3.85, 1021 18.25 M1021 18.25 C1021.6 24.26, 1019.93 34.77, 1021 54.75 M1021 18.25 C1020.18 31.54, 1020.62 46.12, 1021 54.75 M1021 54.75 C1022.75 68.67, 1013.72 71.53, 1002.75 73 M1021 54.75 C1020.23 67.37, 1017.15 71.45, 1002.75 73 M1002.75 73 C642.12 74.86, 281.89 75.35, 18.25 73 M1002.75 73 C678.06 75.84, 353.95 75.97, 18.25 73 M18.25 73 C6.77 71, -1.31 67.48, 0 54.75 M18.25 73 C5.91 71.14, -0.34 67.82, 0 54.75 M0 54.75 C-2.04 42.79, 0.09 36.55, 0 18.25 M0 54.75 C-0.47 43.88, -0.18 32.79, 0 18.25 M0 18.25 C0.51 6.83, 8.04 -0.83, 18.25 0 M0 18.25 C0.72 6.41, 6.32 -0.87, 18.25 0" stroke="#2f9e44" stroke-width="2" fill="none"></path></g><g transform="translate(296.7158966064451 39.5) rotate(0 242.7841033935547 22.5)"><text x="242.7841033935547" y="31.536" font-family="Virgil, Segoe UI Emoji" font-size="36px" fill="#2f9e44" text-anchor="middle" style="white-space: pre;" direction="ltr" dominant-baseline="alphabetic">The Sakura's Taquin Game</text></g><g stroke-linecap="round" transform="translate(986.0000000000002 747.5) rotate(0 32.499999999999886 30.5)"><path d="M15.25 0 C28.76 0.7, 38.52 0.1, 49.75 0 M15.25 0 C26.21 0.19, 34.98 -0.16, 49.75 0 M49.75 0 C61.82 -0.43, 65.47 6.81, 65 15.25 M49.75 0 C61.42 -1.88, 66.98 6.27, 65 15.25 M65 15.25 C66.07 22.67, 65.26 32.26, 65 45.75 M65 15.25 C64.24 25.78, 65.01 33.87, 65 45.75 M65 45.75 C65 54.14, 60.66 60.59, 49.75 61 M65 45.75 C64.64 56.6, 60.03 59.1, 49.75 61 M49.75 61 C41.57 62.38, 29.96 61.16, 15.25 61 M49.75 61 C36.17 60.85, 24.28 59.97, 15.25 61 M15.25 61 C4.14 60.15, 1.9 56.79, 0 45.75 M15.25 61 C6.74 61.77, 0.81 56.38, 0 45.75 M0 45.75 C-0.75 37.79, -1.46 27.39, 0 15.25 M0 45.75 C-0.1 34.71, -0.53 23.09, 0 15.25 M0 15.25 C-1.53 4.18, 6.36 1.68, 15.25 0 M0 15.25 C-0.27 4.04, 5.74 -0.97, 15.25 0" stroke="#2f9e44" stroke-width="2" fill="none"></path></g><g transform="translate(1004.2979965209961 755.5) rotate(0 14.202003479003906 22.5)"><text x="14.202003479003906" y="31.536" font-family="Virgil, Segoe UI Emoji" font-size="36px" fill="#2f9e44" text-anchor="middle" style="white-space: pre;" direction="ltr" dominant-baseline="alphabetic">G</text></g><g transform="translate(1178 81) rotate(0 48.582008361816406 22.5)"><text x="0" y="31.536" font-family="Virgil, Segoe UI Emoji" font-size="36px" fill="#e03131" text-anchor="start" style="white-space: pre;" direction="ltr" dominant-baseline="alphabetic">Model</text></g><g transform="translate(1178.4179916381836 129.5) rotate(0 34.056007385253906 22.5)"><text x="0" y="31.536" font-family="Virgil, Segoe UI Emoji" font-size="36px" fill="#2f9e44" text-anchor="start" style="white-space: pre;" direction="ltr" dominant-baseline="alphabetic">View</text></g><g transform="translate(1179.943992614746 181.5) rotate(0 84.9060287475586 22.5)"><text x="0" y="31.536" font-family="Virgil, Segoe UI Emoji" font-size="36px" fill="#1971c2" text-anchor="start" style="white-space: pre;" direction="ltr" dominant-baseline="alphabetic">Controller</text></g></svg>